<?xml version="1.0" encoding="UTF-8"?>
<!-- Generated by Pixelmator Pro 3.7 -->
<svg width="2050" height="2050" viewBox="0 0 2050 2050" xmlns="http://www.w3.org/2000/svg">
    <g id="Layer-1">
        <path id="Path" fill="#616161" stroke="none" d="M 950.703735 1179.191284 L 897.89209 1323.083252 C 894.482483 1332.381226 899.255432 1342.683716 908.552917 1346.0896 C 917.85083 1349.499512 928.149597 1344.726685 931.559204 1335.428711 L 984.545837 1191.056274 C 982.816711 1191.28833 981.048767 1191.4104 979.25415 1191.4104 C 975.956299 1191.4104 972.747925 1191.003418 969.685791 1190.238281 C 969.09375 1190.092041 968.505859 1189.93335 967.924194 1189.758301 C 964.731689 1188.802002 961.706665 1187.451172 958.90918 1185.766602 C 955.887939 1183.943726 953.127075 1181.72998 950.703735 1179.191284 Z"/>
        <path id="path1" fill="#424242" stroke="none" d="M 881.056641 1326.265381 C 871.140442 1326.265381 863.102112 1334.305908 863.102112 1344.222046 C 863.102112 1354.138306 871.140442 1362.178711 881.056641 1362.178711 L 946.522888 1362.178711 C 956.439148 1362.178711 964.479553 1354.138306 964.479553 1344.222046 C 964.479553 1334.305908 956.439148 1326.265381 946.522888 1326.265381 L 881.056641 1326.265381 Z"/>
        <path id="path2" fill="#242424" stroke="none" d="M 560.202942 1161.372925 L 480.521667 863.993286 L 492.175415 860.868286 L 571.858704 1158.247925 L 560.202942 1161.372925 Z"/>
        <path id="path3" fill="#242424" stroke="none" d="M 560.225403 1158.268311 L 639.908752 860.886597 L 651.517944 863.9729 L 571.836304 1161.352539 L 560.225403 1158.268311 Z"/>
        <path id="path4" fill="#242424" stroke="none" d="M 571.836304 1161.352539 L 492.152924 1458.736206 L 480.544159 1455.647949 L 560.225403 1158.268311 L 571.836304 1161.352539 Z"/>
        <path id="path5" fill="#242424" stroke="none" d="M 570.269592 1164.06665 L 352.571686 1381.762451 L 344.09375 1373.250366 L 561.792053 1155.554199 L 570.269592 1164.06665 Z"/>
        <path id="path6" fill="#242424" stroke="none" d="M 567.592468 1165.637085 L 270.212891 1245.320801 L 267.089996 1233.666992 L 564.469604 1153.983765 L 567.592468 1165.637085 Z"/>
        <path id="path7" fill="#242424" stroke="none" d="M 564.487915 1165.616699 L 267.108337 1085.93335 L 270.19458 1074.320435 L 567.574158 1154.003784 L 564.487915 1165.616699 Z"/>
        <path id="path8" fill="#242424" stroke="none" d="M 561.773743 1164.050415 L 344.077484 946.352173 L 352.589996 937.874268 L 570.287903 1155.570435 L 561.773743 1164.050415 Z"/>
        <path id="path9" fill="#242424" stroke="none" d="M 561.792053 1155.554199 L 779.490051 937.85791 L 787.967957 946.370483 L 570.269592 1164.06665 L 561.792053 1155.554199 Z"/>
        <path id="path10" fill="#242424" stroke="none" d="M 564.469604 1153.983765 L 861.849121 1074.300049 L 864.972107 1085.957886 L 567.592468 1165.637085 L 564.469604 1153.983765 Z"/>
        <path id="path11" fill="#242424" stroke="none" d="M 567.574158 1154.003784 L 864.953735 1233.6875 L 861.867065 1245.300415 L 564.487915 1165.616699 L 567.574158 1154.003784 Z"/>
        <path id="path12" fill="#242424" stroke="none" d="M 570.287903 1155.570435 L 787.984131 1373.270874 L 779.47168 1381.746216 L 561.773743 1164.050415 L 570.287903 1155.570435 Z"/>
        <path id="path13" fill="#242424" stroke="none" d="M 571.858704 1158.247925 L 651.542114 1455.627441 L 639.886658 1458.752441 L 560.202942 1161.372925 L 571.858704 1158.247925 Z"/>
        <path id="path14" fill="#242424" stroke="none" d="M 491.86792 883.02832 C 568.296265 862.548706 645.794617 874.987915 709.303711 911.653809 C 772.812927 948.32373 822.334961 1009.216187 842.816223 1085.644531 C 863.29541 1162.07666 850.852539 1239.574951 814.186646 1303.084229 C 777.518799 1366.593384 716.623779 1416.117432 640.195862 1436.592529 C 563.765381 1457.072021 486.26709 1444.632935 422.757904 1407.967041 C 359.250824 1371.297119 309.727112 1310.404541 289.247498 1233.976318 C 268.768341 1157.543701 281.209137 1080.049561 317.875 1016.53833 C 354.542908 953.029663 415.437927 903.505493 491.86792 883.02832 L 491.86792 883.02832 Z M 690.781677 943.737915 C 635.48584 911.8125 568.005432 900.980835 501.456665 918.812988 C 434.905853 936.645386 381.882935 979.764893 349.957092 1035.058716 C 318.031647 1090.356201 307.202087 1157.837158 325.032501 1224.385376 C 342.86499 1290.934204 385.984161 1343.95752 441.280029 1375.882935 C 496.575836 1407.8125 564.054199 1418.640015 630.607117 1400.80957 C 697.157898 1382.975342 750.179138 1339.855835 782.106628 1284.562134 C 814.030029 1229.26416 824.861633 1161.787842 807.029175 1095.234985 C 789.196655 1028.68457 746.07959 975.661255 690.781677 943.737915 Z"/>
        <path id="path15" fill="#424242" stroke="none" d="M 486.348328 862.430786 C 568.464966 840.42749 651.731262 853.794189 719.9646 893.188354 C 788.200012 932.584595 841.408325 998.010498 863.411621 1080.127075 C 885.414551 1162.243774 872.050049 1245.507935 832.653748 1313.744995 C 793.257507 1381.978271 727.830017 1435.188721 645.715393 1457.189941 C 563.59668 1479.195068 480.332489 1465.828369 412.097076 1426.432129 C 343.862091 1387.036255 290.655426 1321.610352 268.650421 1239.493774 C 246.64917 1157.377075 260.013763 1074.112915 299.410004 1005.875854 C 338.804169 937.640381 404.231689 884.434082 486.348328 862.430786 L 486.348328 862.430786 Z M 702.012085 924.285889 C 641.737915 889.487915 568.18457 877.681641 495.644165 897.119141 C 423.101685 916.556641 365.307495 963.557983 330.507507 1023.829956 C 295.707092 1084.106201 283.902924 1157.657959 303.340851 1230.199951 C 322.77832 1302.738281 369.777496 1360.534668 430.051666 1395.337158 C 490.325836 1430.13501 563.877502 1441.939209 636.419617 1422.501709 C 708.960022 1403.064209 766.756226 1356.062866 801.556274 1295.79248 C 836.354553 1235.51416 848.160828 1161.962891 828.723328 1089.42041 C 809.2854 1016.882568 762.28418 959.086182 702.012085 924.285889 Z"/>
        <path id="path16" fill="#ffffff" fill-rule="evenodd" stroke="none" d="M 588.061646 1172.530029 C 591.31665 1166.894531 592.421631 1160.013794 590.602478 1153.226685 C 588.783752 1146.439575 584.38501 1141.032104 578.751709 1137.780762 C 573.116211 1134.525391 566.235413 1133.422852 559.446289 1135.237549 C 552.661255 1137.056641 547.253357 1141.455078 544.000427 1147.09082 C 540.74707 1152.726318 539.642517 1159.61084 541.459167 1166.394165 C 543.277954 1173.181274 547.676636 1178.588745 553.312134 1181.840088 C 558.945862 1185.095459 565.830444 1186.202148 572.615417 1184.383301 C 579.402466 1182.564209 584.810425 1178.165771 588.061646 1172.530029 Z"/>
        <path id="path17" fill="#242424" stroke="none" d="M 1480.310059 1158.740479 L 1400.626587 861.36084 L 1412.28418 858.237915 L 1491.967896 1155.615479 L 1480.310059 1158.740479 Z"/>
        <path id="path18" fill="#242424" stroke="none" d="M 1480.330444 1155.635376 L 1560.013672 858.25415 L 1571.626709 861.340454 L 1491.943359 1158.719971 L 1480.330444 1155.635376 Z"/>
        <path id="path19" fill="#242424" stroke="none" d="M 1491.943359 1158.719971 L 1412.26001 1456.099609 L 1400.651245 1453.015015 L 1480.330444 1155.635376 L 1491.943359 1158.719971 Z"/>
        <path id="path20" fill="#242424" stroke="none" d="M 1490.376709 1161.433716 L 1272.680786 1379.134155 L 1264.200806 1370.621704 L 1481.897095 1152.921631 L 1490.376709 1161.433716 Z"/>
        <path id="path21" fill="#242424" stroke="none" d="M 1487.699585 1163.004639 L 1190.319946 1242.687988 L 1187.194946 1231.03418 L 1484.574585 1151.35083 L 1487.699585 1163.004639 Z"/>
        <path id="path22" fill="#242424" stroke="none" d="M 1484.594604 1162.984131 L 1187.215088 1083.300781 L 1190.299561 1071.692139 L 1487.679199 1151.375366 L 1484.594604 1162.984131 Z"/>
        <path id="path23" fill="#242424" stroke="none" d="M 1481.880859 1161.41748 L 1264.18457 943.72168 L 1272.697021 935.241699 L 1490.392944 1152.937866 L 1481.880859 1161.41748 Z"/>
        <path id="path24" fill="#242424" stroke="none" d="M 1481.897095 1152.921631 L 1699.597046 935.225464 L 1708.072876 943.737915 L 1490.376709 1161.433716 L 1481.897095 1152.921631 Z"/>
        <path id="path25" fill="#242424" stroke="none" d="M 1484.574585 1151.35083 L 1781.957886 1071.66748 L 1785.078857 1083.324951 L 1487.699585 1163.004639 L 1484.574585 1151.35083 Z"/>
        <path id="path26" fill="#242424" stroke="none" d="M 1487.679199 1151.375366 L 1785.0625 1231.054565 L 1781.974121 1242.66748 L 1484.594604 1162.984131 L 1487.679199 1151.375366 Z"/>
        <path id="path27" fill="#242424" stroke="none" d="M 1490.392944 1152.937866 L 1708.089233 1370.637939 L 1699.580933 1379.11377 L 1481.880859 1161.41748 L 1490.392944 1152.937866 Z"/>
        <path id="path28" fill="#242424" stroke="none" d="M 1491.967896 1155.615479 L 1571.647095 1452.998779 L 1559.993408 1456.119629 L 1480.310059 1158.740479 L 1491.967896 1155.615479 Z"/>
        <path id="path29" fill="#242424" stroke="none" d="M 1411.974976 880.393311 C 1488.40332 859.91626 1565.901733 872.357056 1629.410767 909.022949 C 1692.920044 945.690796 1742.443726 1006.585815 1762.92334 1083.015869 C 1783.402466 1159.444092 1770.959595 1236.942505 1734.293701 1300.45166 C 1697.623657 1363.960815 1636.730835 1413.484619 1560.302856 1433.964111 C 1483.874634 1454.443359 1406.376221 1442.000366 1342.862915 1405.334595 C 1279.35376 1368.668701 1229.834106 1307.771729 1209.354492 1231.34375 C 1188.875488 1154.915405 1201.314209 1077.416992 1237.97998 1013.905884 C 1274.649902 950.396729 1335.542969 900.875 1411.974976 880.393311 L 1411.974976 880.393311 Z M 1610.888794 941.10498 C 1555.59082 909.179565 1488.114502 898.349976 1421.561646 916.18042 C 1355.012939 934.012817 1301.989624 977.13208 1270.064209 1032.429932 C 1238.138672 1087.723755 1227.307129 1155.204102 1245.141724 1221.75293 C 1262.972168 1288.305908 1306.091309 1341.328735 1361.38916 1373.254639 C 1416.682983 1405.179932 1484.16333 1416.007568 1550.712036 1398.177002 C 1617.264893 1380.342529 1670.287964 1337.223389 1702.213745 1281.929565 C 1734.13916 1226.631592 1744.966675 1159.155396 1727.13623 1092.602539 C 1709.305786 1026.051636 1666.186646 973.030518 1610.888794 941.10498 Z"/>
        <path id="path30" fill="#424242" stroke="none" d="M 1406.453369 859.79834 C 1488.574219 837.795044 1571.838379 851.161743 1640.071655 890.555786 C 1708.308838 929.952148 1761.515381 995.379517 1783.520386 1077.494141 C 1805.521606 1159.61499 1792.154907 1242.87915 1752.758789 1311.112549 C 1713.366699 1379.345825 1647.937134 1432.556274 1565.820435 1454.557129 C 1483.703735 1476.5625 1400.439575 1463.195801 1332.202026 1423.799561 C 1263.96875 1384.40332 1210.762573 1318.977905 1188.757446 1236.861206 C 1166.756348 1154.744629 1180.118652 1071.480469 1219.515015 1003.244995 C 1258.911255 935.009644 1324.33667 881.80127 1406.453369 859.79834 L 1406.453369 859.79834 Z M 1622.119141 921.65332 C 1561.844971 886.855103 1488.289673 875.050903 1415.751221 894.486572 C 1343.20874 913.924194 1285.412476 960.925415 1250.614502 1021.19751 C 1215.816284 1081.473755 1204.007935 1155.025391 1223.445923 1227.567505 C 1242.883301 1300.109985 1289.884521 1357.9021 1350.158691 1392.704102 C 1410.432983 1427.502441 1483.984619 1439.306641 1556.526733 1419.869141 C 1629.069092 1400.435425 1686.865356 1353.434204 1721.66333 1293.159912 C 1756.46167 1232.885742 1768.265747 1159.334229 1748.828369 1086.791992 C 1729.394531 1014.249634 1682.393433 956.453369 1622.119141 921.65332 Z"/>
        <path id="path31" fill="#ffffff" fill-rule="evenodd" stroke="none" d="M 1508.166626 1169.897461 C 1511.421753 1164.265869 1512.52832 1157.381226 1510.709595 1150.594116 C 1508.890747 1143.807129 1504.492065 1138.39917 1498.856567 1135.147949 C 1493.220825 1131.892822 1486.340454 1130.786255 1479.553345 1132.609131 C 1472.77002 1134.423828 1467.358276 1138.82251 1464.107178 1144.458008 C 1460.852051 1150.09375 1459.749268 1156.978271 1461.568359 1163.76123 C 1463.387085 1170.54834 1467.781738 1175.956299 1473.416992 1179.211182 C 1479.052856 1182.462524 1485.9375 1183.569092 1492.720459 1181.750488 C 1499.507568 1179.931641 1504.915405 1175.532959 1508.166626 1169.897461 Z"/>
        <path id="path32" fill="#242424" stroke="none" d="M 785.552917 668.347046 C 781.756653 659.204224 771.266663 654.870483 762.125854 658.664917 C 752.984558 662.461182 748.64917 672.953247 752.445435 682.094238 L 789.869995 771.602539 L 946.708374 1146.704102 L 572.249146 1146.704102 C 562.333374 1146.704102 554.292908 1154.744629 554.292908 1164.660889 C 554.292908 1174.57666 562.333374 1182.617065 572.249146 1182.617065 L 973.30542 1182.617065 C 975.724182 1182.662109 978.194153 1182.222412 980.570435 1181.225342 C 989.719604 1177.400879 994.035034 1166.882568 990.210022 1157.734985 L 990.179565 1157.747559 L 822.977539 757.853271 L 785.552917 668.347046 Z"/>
        <path id="path33" fill="#353535" stroke="none" d="M 785.552917 668.347046 C 781.756653 659.204224 771.266663 654.870483 762.125854 658.664917 C 752.984558 662.461182 748.64917 672.953247 752.445435 682.094238 L 765.134583 712.440918 L 798.681641 699.74585 L 785.552917 668.347046 Z"/>
        <path id="path34" fill="#242424" stroke="none" d="M 1317.802002 642.323853 C 1314.428711 633.026245 1304.162476 628.222534 1294.86499 631.591675 C 1285.567139 634.963013 1280.761719 645.231201 1284.13501 654.528809 L 1466.3125 1158.05249 C 1469.681641 1167.346191 1479.947876 1172.151611 1489.245483 1168.782471 C 1498.543335 1165.41333 1503.348755 1155.143311 1499.979492 1145.845459 L 1317.802002 642.323853 Z"/>
        <path id="path35" fill="#242424" stroke="none" d="M 1346.793701 783.095459 C 1342.492554 784.670044 1339.160034 778.743408 1337.158325 782.487061 C 1337.29248 782.322021 1337.426636 782.159546 1337.569214 781.998657 L 1337.62207 782.047485 L 1337.605835 782.094238 L 1338.907837 783.219482 L 1337.630493 782.491333 C 1337.483765 783.164551 1336.905762 784.897827 1336.38501 786.299683 C 1341.031982 782.293701 1365.547607 806.27832 1338.907837 783.219482 L 1337.630493 782.491333 C 1337.703369 782.169556 1337.674927 782.088379 1337.487915 782.411743 C 1337.255859 782.81665 1337.50415 782.35083 1337.605835 782.094238 L 1337.577393 782.072021 C 1337.439209 782.230835 1337.239624 782.446289 1337.089111 782.621216 L 1337.158325 782.487061 L 1336.8125 782.93042 C 1303.230835 820.61377 962.147888 1150.866699 961.15918 1151.822998 C 954.069153 1158.719971 953.912476 1170.056274 960.807495 1177.144165 C 967.702087 1184.236572 979.040405 1184.391357 986.128723 1177.498291 C 987.117493 1176.542114 1327.022583 847.428345 1363.533325 806.754517 C 1363.919922 806.380005 1364.29834 805.987549 1364.660767 805.57251 L 1364.652466 805.566284 C 1366.426758 803.527954 1367.765381 810.713745 1368.63208 809.204224 C 1368.823364 808.872437 1369.002075 808.532959 1369.17334 808.192993 C 1370.007446 806.557129 1370.609497 804.764893 1370.914551 802.850464 L 1370.841675 802.840088 L 1370.845459 802.817871 L 1370.85791 802.819946 C 1372.6604 791.544556 1368.282104 784.82251 1357.206177 782.415771 C 1356.994629 782.36499 1356.779175 782.320068 1356.567505 782.277588 L 1356.563354 782.295898 C 1353.36499 781.67334 1350.024536 781.89917 1346.793701 783.095459 L 1346.793701 783.095459 Z M 1337.62207 782.043335 L 1337.577393 782.000854 C 1337.654663 781.90918 1337.658691 781.949951 1337.62207 782.043335 Z"/>
        <path id="path36" fill="#242424" stroke="none" d="M 550.370422 1142.895508 C 545.450867 1151.493408 548.435425 1162.455444 557.033325 1167.374634 C 565.633301 1172.294189 576.594971 1169.311646 581.512512 1160.709595 L 821.994995 769.557495 C 826.914612 760.959961 823.929993 750 815.332092 745.078247 C 806.732117 740.15918 795.772461 743.143677 790.852905 751.743652 L 550.370422 1142.895508 Z"/>
        <path id="path37" fill="#242424" stroke="none" d="M 787.910828 742.694214 L 1346.716309 742.694214 L 1355.696655 778.607056 L 787.910828 778.607056 L 787.910828 742.694214 Z"/>
        <path id="path38" fill="#242424" stroke="none" d="M 979.25415 1239.737915 C 955.012878 1239.737915 933.062927 1229.911255 917.17334 1214.021729 C 901.285828 1198.13623 891.459167 1176.184082 891.459167 1151.945068 C 891.459167 1127.697998 901.285828 1105.749512 917.17334 1089.860107 C 933.062927 1073.974609 955.012878 1064.143799 979.25415 1064.143799 C 1003.497498 1064.143799 1025.44751 1073.974609 1041.337036 1089.860107 C 1057.226685 1105.749512 1067.053345 1127.697998 1067.053345 1151.945068 C 1067.053345 1176.184082 1057.226685 1198.13623 1041.337036 1214.021729 C 1025.44751 1229.911255 1003.497498 1239.737915 979.25415 1239.737915 L 979.25415 1239.737915 Z"/>
        <path id="path39" fill="#616161" fill-rule="evenodd" stroke="none" d="M 989.825439 1189.977905 C 1005.865417 1185.526611 1017.799988 1171.203735 1018.670837 1153.963379 C 1018.703308 1153.295898 1018.721619 1152.620361 1018.721619 1151.945068 C 1018.721619 1143.729614 1016.212891 1136.100342 1011.918335 1129.785034 C 1007.582458 1123.40918 1001.43042 1118.363281 994.203735 1115.405396 C 989.593323 1113.51709 984.545837 1112.475342 979.25415 1112.475342 C 977.313354 1112.475342 975.402893 1112.61792 973.537048 1112.886719 C 972.407898 1113.049194 971.293335 1113.264893 970.196655 1113.52124 C 952.765015 1117.614502 939.788757 1133.26416 939.788757 1151.945068 C 939.788757 1160.717896 942.651245 1168.819092 947.495422 1175.374146 C 950.57373 1179.540771 954.455444 1183.081299 958.911255 1185.766602 C 961.70874 1187.451172 964.731689 1188.802002 967.924194 1189.758301 C 968.505859 1189.93335 969.091675 1190.092041 969.685791 1190.238281 C 972.747925 1191.003418 975.956299 1191.4104 979.25415 1191.4104 C 982.91626 1191.4104 986.460449 1190.910034 989.825439 1189.977905 Z"/>
        <path id="path40" fill="#616161" stroke="none" d="M 1060.616211 983.79126 C 1064.025757 974.493286 1059.25293 964.192505 1049.955444 960.785034 C 1040.657471 957.377075 1030.358765 962.149902 1026.951294 971.447876 L 975.109985 1112.691162 C 976.4729 1112.548828 975.970398 1114.794922 979.315002 1114.794922 C 982.657959 1114.794922 988.279175 1117.179199 992.889587 1119.067505 C 997.688721 1121.944092 997.485413 1127.01416 1008.591675 1125.54541 L 1060.616211 983.79126 Z"/>
        <path id="path41" fill="#424242" stroke="none" d="M 1015.72876 954.050781 C 1005.810425 954.050781 997.772095 962.091187 997.772095 972.00708 C 997.772095 981.92334 1005.810425 989.963745 1015.72876 989.963745 L 1086.804199 989.963745 C 1096.720337 989.963745 1104.760864 981.92334 1104.760864 972.00708 C 1104.760864 962.091187 1096.720337 954.050781 1086.804199 954.050781 L 1015.72876 954.050781 Z"/>
        <path id="path42" fill="#f3ffff" fill-rule="evenodd" stroke="none" d="M 985.667114 1175.016357 C 995.397888 1172.318359 1002.636658 1163.627075 1003.165833 1153.169556 C 1003.185852 1152.762939 1003.196289 1152.352051 1003.196289 1151.940918 C 1003.196289 1146.960449 1001.674561 1142.334229 999.070435 1138.500854 C 996.439575 1134.631226 992.706238 1131.571289 988.324158 1129.7771 C 985.526672 1128.633789 982.4646 1127.998779 979.25415 1127.998779 C 978.076233 1127.998779 976.918335 1128.084229 975.785461 1128.251221 C 975.099548 1128.348755 974.424194 1128.479248 973.758789 1128.633789 C 963.185791 1131.115845 955.314209 1140.608643 955.314209 1151.940918 C 955.314209 1157.263306 957.049561 1162.182495 959.987488 1166.157959 C 961.857117 1168.685059 964.210815 1170.833252 966.912903 1172.460815 C 968.609558 1173.486328 970.44458 1174.304199 972.381653 1174.88208 C 972.733765 1174.987915 973.0896 1175.085449 973.449585 1175.175049 C 975.309204 1175.638794 977.25415 1175.882935 979.25415 1175.882935 C 981.47583 1175.882935 983.626221 1175.581665 985.667114 1175.016357 Z"/>
        <path id="path43" fill="#242424" fill-rule="evenodd" stroke="none" d="M 1522.098755 1177.942139 C 1527.408691 1168.74585 1529.215332 1157.51123 1526.244995 1146.431641 C 1523.278809 1135.355835 1516.101196 1126.525879 1506.901245 1121.21582 C 1497.700928 1115.905762 1486.470459 1114.103271 1475.390869 1117.06958 C 1464.314575 1120.040039 1455.484985 1127.217529 1450.174927 1136.41748 C 1444.86499 1145.61377 1443.0625 1156.848389 1446.028809 1167.924194 C 1448.999146 1179.003784 1456.176636 1187.82959 1465.376709 1193.139648 C 1474.572876 1198.453857 1485.807495 1200.256226 1496.887085 1197.285889 C 1507.962891 1194.31958 1516.788696 1187.137939 1522.098755 1177.942139 Z"/>
        <path id="path44" fill="#242424" fill-rule="evenodd" stroke="none" d="M 601.991638 1180.574585 C 607.303772 1171.374512 609.108337 1160.144165 606.140015 1149.064209 C 603.171692 1137.988281 595.992065 1129.158325 586.794128 1123.848389 C 577.595825 1118.53833 566.363342 1116.73584 555.283752 1119.702148 C 544.207886 1122.668335 535.380005 1129.850342 530.070007 1139.050415 C 524.757935 1148.246338 522.955444 1159.480835 525.921692 1170.556641 C 528.89209 1181.636719 536.06958 1190.462158 545.267944 1195.772461 C 554.46582 1201.08252 565.702515 1202.88916 576.77832 1199.918701 C 587.857971 1196.948242 596.683777 1189.770508 601.991638 1180.574585 Z"/>
        <path id="path45" fill="#424242" stroke="none" d="M 1274.568848 628.039551 C 1263.85083 630.9021 1257.487061 641.912964 1260.347534 652.628662 C 1263.212036 663.346191 1274.2229 669.712402 1284.94043 666.849609 L 1424.080444 629.56543 C 1431.775024 627.504639 1439.599609 628.772095 1446.008301 632.470825 C 1452.449585 636.187866 1457.474609 642.334106 1459.529663 650.01001 C 1461.59668 657.717163 1460.343262 665.543701 1456.660889 671.958252 L 1456.624268 671.939941 L 1456.612183 671.9646 L 1456.571167 671.939941 C 1456.392578 672.245361 1456.225464 672.554565 1456.067017 672.865845 C 1452.307129 678.857544 1446.390747 683.50415 1439.087036 685.461304 L 1401.415894 695.554565 C 1390.698364 698.419189 1384.330322 709.427856 1387.194946 720.145752 C 1390.05957 730.861328 1401.070068 737.227539 1411.783691 734.36499 L 1449.45874 724.269653 C 1467.264893 719.498657 1481.604126 708.097412 1490.523315 693.444946 C 1490.83252 692.994995 1491.129517 692.53125 1491.40625 692.051147 L 1473.986694 681.994629 L 1491.349121 691.973755 C 1500.203369 676.633667 1503.24707 657.952881 1498.339966 639.640381 C 1493.42041 621.272949 1481.445435 606.59375 1466.121338 597.747925 C 1450.769165 588.883301 1432.05957 585.837891 1413.708374 590.755005 L 1274.568848 628.039551 Z"/>
        <path id="path46" fill="#424242" fill-rule="evenodd" stroke="none" d="M 785.707458 671.814209 C 812.174622 662.905029 903.287903 663.444092 920.711243 631.140015 C 922.682495 627.484131 922.786621 626.501709 921.801697 622.23291 C 914.562927 590.86499 772.184204 617.327881 741.306702 617.482544 C 728.277527 617.54541 660.194946 580.594971 661.938354 624.997925 C 662.508301 639.5 667.936279 667.459961 699.450806 682.214233 C 699.450806 682.214233 737.129578 690.537476 785.707458 671.814209 Z"/>
        <path id="path47" fill="#353535" fill-rule="evenodd" stroke="none" d="M 785.707458 671.814209 C 790.48877 670.20459 797.389587 668.902466 805.57666 667.661621 L 740.765442 617.462036 C 726.511658 616.593262 660.217102 581.172607 661.938354 624.997925 C 662.508301 639.5 667.936279 667.459961 699.450806 682.214233 C 699.450806 682.214233 737.129578 690.537476 785.707458 671.814209 Z"/>
    </g>
</svg>
