<?xml version="1.0" encoding="UTF-8"?>
<!-- Generated by Pixelmator Pro 3.7 -->
<svg width="5837" height="9555" viewBox="0 0 5837 9555" xmlns="http://www.w3.org/2000/svg">
    <path id="Path" fill="#0376bb" stroke="none" d="M 4865.650391 4952.289063 C 4824.203125 4778.887695 4698.097656 4251.570801 3925.298828 3215.626953 C 3659.738281 2859.799805 3368.615234 2512.494629 3059.701172 2183.364746 L 2919.101563 2033.613281 L 2778.628906 2183.364746 C 2469.710938 2512.364258 2178.59375 2859.675781 1912.902344 3215.626953 C 1140.105469 4251.570801 1014.121094 4778.887695 972.681641 4952.165039 C 914.333008 5195.863281 888.399414 5337.353027 888.399414 5531.598145 C 888.399414 6074.048828 1099.552734 6584.072266 1483.220703 6967.608887 C 1866.757813 7351.152344 2376.787109 7562.429688 2919.101563 7562.429688 C 3461.544922 7562.429688 3971.574219 7351.152344 4355.111328 6967.608887 C 4738.654297 6584.072266 4949.931641 6074.048828 4949.931641 5531.598145 C 4949.931641 5337.353027 4923.873047 5195.863281 4865.650391 4952.289063 Z M 3811.015625 6310.882324 C 3603.289063 6522.415039 3363.785156 6614.456055 3199.417969 6654.375977 C 3184.158203 6658.062988 3168.777344 6659.837891 3153.775391 6659.837891 C 3066.953125 6659.837891 2988.001953 6600.726074 2966.650391 6512.631836 C 2941.478516 6409.149902 3004.910156 6305.035156 3108.392578 6279.864258 C 3223.947266 6251.763672 3391.878906 6187.443359 3536.044922 6040.740234 C 3799.445313 5772.503906 3795.759766 5418.078613 3788.390625 5315.869141 C 3780.630859 5209.718262 3860.46875 5117.428223 3966.615234 5109.668945 C 4072.765625 5101.916016 4165.0625 5181.878418 4172.816406 5288.029785 C 4183.113281 5430.915527 4187.6875 5927.214844 3811.015625 6310.882324 Z"/>
    <path id="Rounded-Rectangle" fill="#242424" fill-rule="evenodd" stroke="none" d="M 476 -2749 C 476 -2726.908203 493.9086 -2709 516 -2709 L 693 -2709 C 715.09137 -2709 733 -2726.908203 733 -2749 L 733 -2926 C 733 -2948.091797 715.09137 -2966 693 -2966 L 516 -2966 C 493.9086 -2966 476 -2948.091797 476 -2926 Z"/>
</svg>
