<?xml version="1.0" encoding="UTF-8"?>
<!-- Generated by Pixelmator Pro 3.7 -->
<svg width="1847" height="1847" viewBox="0 0 1847 1847" xmlns="http://www.w3.org/2000/svg">
    <g id="Group">
        <path id="Path" fill="#f7ba00" stroke="none" d="M 923.65332 498.225098 C 688.68457 498.225098 498.205811 688.704102 498.205811 923.672363 C 498.205811 1158.640625 688.68457 1349.120605 923.65332 1349.120605 C 1158.62207 1349.120605 1349.101318 1158.640625 1349.101318 923.672363 C 1349.101318 688.704102 1158.62207 498.225098 923.65332 498.225098 Z"/>
        <path id="path1" fill="#f7ba00" stroke="none" d="M 924.844971 369.518066 C 951.172485 369.518066 972.514648 348.17627 972.514648 321.848633 L 972.514648 47.750977 C 972.514648 21.42334 951.172485 0.081543 924.844971 0.081543 C 898.517944 0.081543 877.175781 21.42334 877.175781 47.750977 L 877.175781 321.848633 C 877.175781 348.17627 898.517944 369.518066 924.844971 369.518066 Z"/>
        <path id="path2" fill="#f7ba00" stroke="none" d="M 465.235352 530.983398 C 474.543213 540.291504 486.742554 544.945313 498.942505 544.945313 C 511.142456 544.945313 523.341675 540.291504 532.649658 530.983398 C 551.265869 512.367676 551.265869 482.185547 532.649658 463.569336 L 338.832886 269.752441 C 320.216675 251.13623 290.034668 251.13623 271.418823 269.752441 C 252.80249 288.368652 252.80249 318.550293 271.418823 337.166504 L 465.235352 530.983398 Z"/>
        <path id="path3" fill="#f7ba00" stroke="none" d="M 369.498779 922.480957 C 369.498779 896.15332 348.157104 874.811523 321.82959 874.811523 L 47.731689 874.811523 C 21.404175 874.811523 0.0625 896.15332 0.0625 922.480957 C 0.0625 948.808105 21.404175 970.149902 47.731689 970.149902 L 321.82959 970.149902 C 348.157104 970.149902 369.498779 948.808105 369.498779 922.480957 Z"/>
        <path id="path4" fill="#f7ba00" stroke="none" d="M 463.549927 1314.674316 L 269.733276 1508.490723 C 251.117065 1527.106934 251.117065 1557.291016 269.733276 1575.907227 C 279.04126 1585.215332 291.240479 1589.868164 303.44043 1589.868164 C 315.640381 1589.868164 327.8396 1585.215332 337.147583 1575.907227 L 530.964111 1382.09082 C 549.580444 1363.474609 549.580444 1333.290527 530.964111 1314.674316 C 512.348267 1296.058105 482.16626 1296.058105 463.549927 1314.674316 Z"/>
        <path id="path5" fill="#f7ba00" stroke="none" d="M 922.46167 1477.827148 C 896.134155 1477.827148 874.79248 1499.168945 874.79248 1525.496094 L 874.79248 1799.594238 C 874.79248 1825.921875 896.134155 1847.263184 922.46167 1847.263184 C 948.789063 1847.263184 970.130859 1825.921875 970.130859 1799.594238 L 970.130859 1525.496094 C 970.130859 1499.168945 948.789063 1477.827148 922.46167 1477.827148 Z"/>
        <path id="path6" fill="#f7ba00" stroke="none" d="M 1382.071777 1316.361328 C 1363.455566 1297.745117 1333.272949 1297.748047 1314.656494 1316.36377 C 1296.041016 1334.97998 1296.041016 1365.162109 1314.657715 1383.77832 L 1508.474121 1577.592285 C 1517.782227 1586.900879 1529.981689 1591.553223 1542.181152 1591.553223 C 1554.380859 1591.553223 1566.580811 1586.898438 1575.888916 1577.590332 C 1594.504639 1558.974121 1594.504639 1528.791992 1575.888428 1510.175781 L 1382.071777 1316.361328 Z"/>
        <path id="path7" fill="#f7ba00" stroke="none" d="M 1799.574951 877.194824 L 1525.477051 877.194824 C 1499.150391 877.194824 1477.807861 898.536621 1477.807861 924.864258 C 1477.807861 951.191406 1499.150391 972.533203 1525.477051 972.533203 L 1799.574951 972.533203 C 1825.9021 972.533203 1847.244629 951.191406 1847.244629 924.864258 C 1847.244629 898.536621 1825.9021 877.194824 1799.574951 877.194824 Z"/>
        <path id="path8" fill="#f7ba00" stroke="none" d="M 1350.049561 546.630859 C 1362.249268 546.630859 1374.44873 541.976563 1383.756836 532.668945 L 1577.573486 338.851563 C 1596.189697 320.23584 1596.189697 290.053711 1577.573486 271.4375 C 1558.95752 252.821777 1528.775391 252.821777 1510.15918 271.4375 L 1316.342529 465.254883 C 1297.726318 483.870605 1297.726318 514.052734 1316.342529 532.668945 C 1325.650391 541.976563 1337.849854 546.630859 1350.049561 546.630859 Z"/>
    </g>
</svg>
